<mxfile host="app.diagrams.net" modified="2023-10-29T19:43:49.290Z" agent="Mozilla/5.0 (Windows NT 10.0; Win64; x64) AppleWebKit/537.36 (KHTML, like Gecko) Chrome/116.0.0.0 Safari/537.36 OPR/102.0.0.0 (Edition Yx GX)" etag="-FA_NnCaUZ3CR3g0oIe-" version="22.0.8" type="device">
  <diagram name="Страница — 1" id="W_neaKqg62TAkk-kTZno">
    <mxGraphModel dx="784" dy="478" grid="1" gridSize="10" guides="1" tooltips="1" connect="1" arrows="1" fold="1" page="1" pageScale="1" pageWidth="827" pageHeight="1169" math="0" shadow="0">
      <root>
        <mxCell id="0" />
        <mxCell id="1" parent="0" />
        <mxCell id="wlIqNlqK176U_4B_AxIU-1" value="Организовать стирку одежды" style="swimlane;html=1;childLayout=stackLayout;resizeParent=1;resizeParentMax=0;horizontal=0;startSize=20;horizontalStack=0;whiteSpace=wrap;" parent="1" vertex="1">
          <mxGeometry x="150" y="260" width="450" height="210" as="geometry" />
        </mxCell>
        <mxCell id="wlIqNlqK176U_4B_AxIU-2" value="" style="swimlane;html=1;startSize=20;horizontal=0;" parent="wlIqNlqK176U_4B_AxIU-1" vertex="1">
          <mxGeometry x="20" width="430" height="210" as="geometry" />
        </mxCell>
        <mxCell id="wlIqNlqK176U_4B_AxIU-8" style="edgeStyle=orthogonalEdgeStyle;rounded=0;orthogonalLoop=1;jettySize=auto;html=1;" parent="wlIqNlqK176U_4B_AxIU-2" source="wlIqNlqK176U_4B_AxIU-5" target="wlIqNlqK176U_4B_AxIU-7" edge="1">
          <mxGeometry relative="1" as="geometry" />
        </mxCell>
        <mxCell id="wlIqNlqK176U_4B_AxIU-5" value="" style="points=[[0.145,0.145,0],[0.5,0,0],[0.855,0.145,0],[1,0.5,0],[0.855,0.855,0],[0.5,1,0],[0.145,0.855,0],[0,0.5,0]];shape=mxgraph.bpmn.event;html=1;verticalLabelPosition=bottom;labelBackgroundColor=#ffffff;verticalAlign=top;align=center;perimeter=ellipsePerimeter;outlineConnect=0;aspect=fixed;outline=standard;symbol=general;" parent="wlIqNlqK176U_4B_AxIU-2" vertex="1">
          <mxGeometry x="50" y="95" width="20" height="20" as="geometry" />
        </mxCell>
        <mxCell id="wlIqNlqK176U_4B_AxIU-6" value="&lt;font style=&quot;font-size: 10px;&quot;&gt;Корзина грязной одежды наполнилась&lt;/font&gt;" style="text;html=1;strokeColor=none;fillColor=none;align=center;verticalAlign=middle;whiteSpace=wrap;rounded=0;" parent="wlIqNlqK176U_4B_AxIU-2" vertex="1">
          <mxGeometry x="10" y="130" width="100" height="30" as="geometry" />
        </mxCell>
        <mxCell id="wlIqNlqK176U_4B_AxIU-7" value="&lt;font style=&quot;font-size: 10px;&quot;&gt;Сортировка одежды&lt;/font&gt;" style="points=[[0.25,0,0],[0.5,0,0],[0.75,0,0],[1,0.25,0],[1,0.5,0],[1,0.75,0],[0.75,1,0],[0.5,1,0],[0.25,1,0],[0,0.75,0],[0,0.5,0],[0,0.25,0]];shape=mxgraph.bpmn.task;whiteSpace=wrap;rectStyle=rounded;size=10;html=1;container=1;expand=0;collapsible=0;taskMarker=abstract;isLoopSub=1;isLoopMultiParallel=1;" parent="wlIqNlqK176U_4B_AxIU-2" vertex="1">
          <mxGeometry x="140" y="77.5" width="80" height="55" as="geometry" />
        </mxCell>
        <mxCell id="wlIqNlqK176U_4B_AxIU-10" style="edgeStyle=orthogonalEdgeStyle;rounded=0;orthogonalLoop=1;jettySize=auto;html=1;entryX=0;entryY=0.5;entryDx=0;entryDy=0;entryPerimeter=0;" parent="wlIqNlqK176U_4B_AxIU-2" source="wlIqNlqK176U_4B_AxIU-7" edge="1">
          <mxGeometry relative="1" as="geometry">
            <mxPoint x="244" y="105" as="targetPoint" />
          </mxGeometry>
        </mxCell>
        <mxCell id="wlIqNlqK176U_4B_AxIU-11" value="&lt;font style=&quot;font-size: 10px;&quot;&gt;Одежда постирана&lt;/font&gt;" style="points=[[0.145,0.145,0],[0.5,0,0],[0.855,0.145,0],[1,0.5,0],[0.855,0.855,0],[0.5,1,0],[0.145,0.855,0],[0,0.5,0]];shape=mxgraph.bpmn.event;html=1;verticalLabelPosition=bottom;labelBackgroundColor=#ffffff;verticalAlign=top;align=center;perimeter=ellipsePerimeter;outlineConnect=0;aspect=fixed;outline=end;symbol=terminate2;" parent="wlIqNlqK176U_4B_AxIU-2" vertex="1">
          <mxGeometry x="370" y="95" width="20" height="20" as="geometry" />
        </mxCell>
        <mxCell id="lmsIJ336omBZMFDXag39-1" value="Стирка одежды" style="points=[[0.25,0,0],[0.5,0,0],[0.75,0,0],[1,0.25,0],[1,0.5,0],[1,0.75,0],[0.75,1,0],[0.5,1,0],[0.25,1,0],[0,0.75,0],[0,0.5,0],[0,0.25,0]];shape=mxgraph.bpmn.task;whiteSpace=wrap;rectStyle=rounded;size=10;html=1;container=1;expand=0;collapsible=0;taskMarker=abstract;isLoopStandard=1;isLoopSub=1;" vertex="1" parent="wlIqNlqK176U_4B_AxIU-2">
          <mxGeometry x="244" y="82.5" width="96" height="45" as="geometry" />
        </mxCell>
        <mxCell id="lmsIJ336omBZMFDXag39-2" style="edgeStyle=orthogonalEdgeStyle;rounded=0;orthogonalLoop=1;jettySize=auto;html=1;entryX=0;entryY=0.5;entryDx=0;entryDy=0;entryPerimeter=0;" edge="1" parent="wlIqNlqK176U_4B_AxIU-2" source="lmsIJ336omBZMFDXag39-1" target="wlIqNlqK176U_4B_AxIU-11">
          <mxGeometry relative="1" as="geometry" />
        </mxCell>
        <mxCell id="lmsIJ336omBZMFDXag39-3" value="" style="html=1;shape=mxgraph.flowchart.annotation_2;align=left;labelPosition=right;" vertex="1" parent="wlIqNlqK176U_4B_AxIU-2">
          <mxGeometry x="320" y="20" width="30" height="35" as="geometry" />
        </mxCell>
        <mxCell id="lmsIJ336omBZMFDXag39-4" style="edgeStyle=orthogonalEdgeStyle;rounded=0;orthogonalLoop=1;jettySize=auto;html=1;entryX=0;entryY=0.5;entryDx=0;entryDy=0;entryPerimeter=0;endArrow=none;endFill=0;dashed=1;" edge="1" parent="wlIqNlqK176U_4B_AxIU-2" source="lmsIJ336omBZMFDXag39-1" target="lmsIJ336omBZMFDXag39-3">
          <mxGeometry relative="1" as="geometry" />
        </mxCell>
        <mxCell id="lmsIJ336omBZMFDXag39-5" value="&lt;font style=&quot;font-size: 10px;&quot;&gt;Пока 4 тазика не &lt;br&gt;будут постираны&lt;/font&gt;" style="text;html=1;align=center;verticalAlign=middle;resizable=0;points=[];autosize=1;strokeColor=none;fillColor=none;" vertex="1" parent="wlIqNlqK176U_4B_AxIU-2">
          <mxGeometry x="330" y="15" width="100" height="40" as="geometry" />
        </mxCell>
      </root>
    </mxGraphModel>
  </diagram>
</mxfile>
